<svg xmlns="http://www.w3.org/2000/svg" xmlns:xlink="http://www.w3.org/1999/xlink" viewBox="0,0,256,256" width="64px" height="64px" fill-rule="nonzero"><g fill="#ffffff" fill-rule="nonzero" stroke="none" stroke-width="1" stroke-linecap="butt" stroke-linejoin="miter" stroke-miterlimit="10" stroke-dasharray="" stroke-dashoffset="0" font-family="none" font-weight="none" font-size="none" text-anchor="none" style="mix-blend-mode: normal"><g transform="scale(3.55556,3.55556)"><path d="M54.657,19.077c0,0 8.343,9.663 8.343,27.069v3.65c0,0 -10.536,6.866 -13.747,6.866l-3.115,-4.529c1.936,-0.867 4.577,-2.372 4.577,-2.372l-0.965,-0.747c0,0 -6.173,2.86 -13.749,2.86c-7.576,0 -13.749,-2.86 -13.749,-2.86l-0.965,0.747c0,0 2.641,1.505 4.577,2.372l-3.115,4.529c-3.213,0 -13.749,-6.866 -13.749,-6.866v-3.65c0,-17.406 8.343,-27.069 8.343,-27.069c0,0 5.707,-2.762 10.977,-3.489l1.635,3.1c0,0 2.599,-0.602 6.045,-0.602c3.446,0 6.045,0.602 6.045,0.602l1.635,-3.1c5.27,0.727 10.977,3.489 10.977,3.489zM27.01,43.603c2.656,0 4.808,-2.418 4.808,-5.401c0,-2.983 -2.153,-5.401 -4.808,-5.401c-2.655,0 -4.808,2.418 -4.808,5.401c0,2.983 2.152,5.401 4.808,5.401zM44.99,43.603c2.656,0 4.808,-2.418 4.808,-5.401c0,-2.983 -2.153,-5.401 -4.808,-5.401c-2.656,0 -4.808,2.418 -4.808,5.401c0,2.983 2.152,5.401 4.808,5.401z"></path></g></g></svg>